<?xml version="1.0" standalone="no"?>
<!DOCTYPE svg PUBLIC "-//W3C//DTD SVG 20010904//EN"
 "http://www.w3.org/TR/2001/REC-SVG-20010904/DTD/svg10.dtd">
<svg version="1.0" xmlns="http://www.w3.org/2000/svg"
 width="260.000000pt" height="260.000000pt" viewBox="0 0 260.000000 260.000000"
 preserveAspectRatio="xMidYMid meet">
<metadata>
Created by potrace 1.11, written by Peter Selinger 2001-2013
</metadata>
<g transform="translate(0.000000,260.000000) scale(0.100000,-0.100000)"
fill="#000000" stroke="none">
<path d="M1077 2465 c-427 -72 -790 -386 -926 -804 -44 -136 -56 -218 -56
-391 1 -144 4 -178 27 -270 124 -490 502 -840 988 -911 122 -17 311 -7 433 25
432 111 753 441 865 886 23 92 26 126 27 270 0 173 -12 255 -56 391 -118 362
-416 658 -775 769 -157 48 -365 62 -527 35z m743 -680 c227 -236 443 -460 478
-497 l65 -67 -297 -304 -297 -305 -158 166 -158 166 73 32 c130 56 208 140
239 259 19 75 19 117 -1 212 -37 179 -131 276 -324 334 -68 20 -103 23 -383
28 l-307 6 261 268 262 269 67 -69 c37 -37 253 -261 480 -498z m-600 -331 c34
-10 67 -29 88 -50 32 -32 34 -38 29 -80 -5 -49 -25 -77 -72 -102 -24 -14 -73
-18 -260 -22 l-230 -5 -3 -27 c-3 -22 50 -86 344 -420 191 -216 353 -401 361
-410 14 -15 12 -20 -18 -47 -68 -63 -157 -83 -264 -61 -57 12 -66 18 -164 114
-57 55 -253 256 -435 446 -291 304 -333 352 -350 398 -20 58 -23 46 44 170 19
37 21 49 12 78 l-10 34 437 0 c372 0 445 -2 491 -16z"/>
</g>
</svg>
